<?xml version="1.0" encoding="UTF-8"?>
<svg id="Layer_1" xmlns="http://www.w3.org/2000/svg" xmlns:xlink="http://www.w3.org/1999/xlink" viewBox="0 0 1362.53 1056.06">
  <defs>
    <style>
      .cls-1 {
        fill: url(#Degradado_sin_nombre_26);
      }

      .cls-2 {
        fill: url(#Degradado_sin_nombre_26-2);
      }
    </style>
    <linearGradient id="Degradado_sin_nombre_26" data-name="Degradado sin nombre 26" x1="0" y1="528.03" x2="1362.53" y2="528.03" gradientUnits="userSpaceOnUse">
      <stop offset="0" stop-color="#4dbf38"/>
      <stop offset=".38" stop-color="#5dc433"/>
      <stop offset="1" stop-color="#80d12a"/>
    </linearGradient>
    <linearGradient id="Degradado_sin_nombre_26-2" data-name="Degradado sin nombre 26" x1="203.95" y1="448.96" x2="529.76" y2="448.96" xlink:href="#Degradado_sin_nombre_26"/>
  </defs>
  <path class="cls-1" d="M1362.29,929.27c-.5-39.15-2.71-121.27-2.71-121.27l-328.15.67,1.43,71.33h260.91l-.39,105-419.46-3.49s0-176.35,0-257.05c0-80.93,0-161.85,0-242.78,0-80.93.87-161.87-.25-242.78-1.09-79.31-1.06-238.9-1.06-238.9h-275.7s1.46,674.44-1.57,722.27c-6.4,100.94-35.98,136.63-56.59,162.49-76.23,95.65-177.53,123.04-309.02,85.94-117.22-33.08-176.9-140.29-155.99-293.31-1.13.68,177.48-2.3,177.41-1.21-.97-17.75-2.79-60.18-2.79-60.18H3.71s-9,119.48,1.03,181.26c18.04,111.16,72.37,199.74,185.41,236.13,78.32,25.21,158.54,30.84,240.77,9.57,76.72-16.08,129.31-59.08,164.84-105.03,0,0,.86-1.27,2.38-3.61,40.91-63.09,68.62-136.78,68.62-211.99l1.95-644.33h134.05v966h559.63s.37-77.7-.1-114.73Z"/>
  <path class="cls-2" d="M203.95,789.45c29.79,62.7,68.1,103.92,125.39,100.26,57.55-3.68,104.28-37.04,118.95-94.21,9.59-37.36,11.64-77.41,11.91-116.29,1.17-168.97.45-337.96.42-506.94,0-29.48,0-97.26,0-97.26h69.14c-.31-13.93-.94-47.13-1.22-67h-140.67s.74,484.79-.55,680.92c-.29,43.88,7.25,92.41-37.86,122.24-24.58,17.82-50.44,7.99-71.23-21.71-17.4.14-66.17.02-74.26,0Z"/>
</svg>