<?xml version="1.0" encoding="UTF-8"?>
<svg id="Capa_1" data-name="Capa 1" xmlns="http://www.w3.org/2000/svg" viewBox="0 0 87 96.13">
  <defs>
    <style>
      .cls-1 {
        fill: #606f53;
      }

      .cls-2 {
        fill: #aab388;
      }
    </style>
  </defs>
  <path class="cls-1" d="m10,18.49v48.15c2.4.79,3.6,1.18,6,1.96v13.46c-6.4-3.54-9.6-5.31-16-8.86V24.26c4-2.31,6-3.46,10-5.77Z"/>
  <path class="cls-1" d="m42,.43c-.18,24.97.39,54.82-.29,79.15-.19,2.87-.76,5.66-1.7,8.26-3.16,9.57-11.25,3.86-15.26-1.84-1.77-2.47-3.09-5.04-3.96-7.72-.88-2.68-1.39-5.24-1.55-7.77-.16-2.53-.24-7.73-.24-15.63V13.64c4-2.31,6-3.46,10-5.77.23,21.91-.47,45.76.28,68.22.18,1.91,2.02,3.15,2.43.73.75-22.99.06-48.1.29-70.62,4-2.31,6-3.46,10-5.77Z"/>
  <path class="cls-2" d="m45,0c7.36,4.62,16.95,7.93,20.07,16.45,2.5,6.55,1.79,14.04,1.93,22.05.08,9.75-.78,18.59-11.72,17.99l-.28.25s0,22.53,0,33.85c-4,2.21-6,3.32-10,5.54V0Zm11,21.22v20.23c3.52.94,2.89-3.72,2.99-8.07v-3.71c-.13-4.6.43-7.02-2.99-8.45Z"/>
  <path class="cls-2" d="m70,14.44c6.8,3.93,10.2,5.89,17,9.81v9.81c-2.8-.98-4.2-1.47-7-2.46v11.03c1.95.27,3.11.42,4.77.65l-.27,9.48c-1.51.12-2.65.21-4.49.35v23.94c-4,2.21-6,3.32-10,5.54V14.44Z"/>
</svg>